<svg width="102" height="80" viewBox="0 0 102 80" fill="none" xmlns="http://www.w3.org/2000/svg">
<path fill-rule="evenodd" clip-rule="evenodd" d="M18.2193 52.0297L6.76959 67.5817C7.06348 68.4144 8.11661 68.4593 8.60644 68.3776L21.4032 51.2337L33.2815 48.4172C39.2573 57.1409 39.6084 71.5227 39.0369 77.6231C39.6737 79.2885 42.0779 79.2967 43.2004 79.0926L43.9964 68.2552C46.0537 79.4232 56.9768 79.4804 62.1812 78.1129C82.509 73.1534 101 41.7433 101 24.0483C101 9.89232 91.2035 3.53683 86.3052 2.12858C79.8395 -0.56547 71.2022 2.1898 67.6918 3.9042C58.9239 8.45959 56.4054 15.0273 56.2421 17.7418C56.34 23.9626 58.4055 25.1504 59.426 24.9667C55.0175 12.3292 68.0387 5.86351 75.1004 4.21035C81.4682 2.54494 87.5502 4.90426 89.7952 6.2921C110.221 32.3999 81.2845 62.1528 64.263 73.7657C47.5599 80.7703 47.2211 69.9492 49.1396 63.6631C53.548 55.7768 60.2832 51.4786 63.0997 50.3153C61.0424 54.2829 59.4668 65.6428 58.9361 70.8268C61.5812 73.4718 62.8139 72.3779 63.0997 71.5003C63.0507 64.8386 66.9979 52.1929 68.9776 46.7028C78.6761 40.2861 83.7948 41.5392 85.1419 42.9679C81.958 39.1472 73.733 41.6209 70.0185 43.3352L79.2639 15.0478C78.3823 11.668 76.1209 12.3333 75.1004 13.0884L64.263 45.9681C52.0663 50.5235 45.9965 59.6628 44.4862 63.6631L46.4456 45.3558C51.0009 43.7883 55.2828 43.3557 56.8544 43.3352C53.7195 41.18 49.058 41.8249 47.1191 42.4168L53.1194 4.21035C51.9439 1.81019 50.0172 1.86326 49.2008 2.18981L27.2199 38.4982C14.8272 29.2895 5.15724 36.2532 1.87132 40.8861C-1.26357 50.9765 4.81028 53.4175 8.23907 53.3767L18.2193 52.0297ZM29.669 40.2738L46.8129 14.9253L42.3433 43.3352L34.3836 45.3558L29.669 40.2738ZM41.731 46.2742L36.098 47.6825L40.5676 57.2341L41.731 46.2742ZM28.3832 41.927L31.5671 45.9681L24.036 47.6825L28.3832 41.927ZM20.7909 48.4172L26.4851 40.2738C22.0277 36.5022 17.158 36.1307 15.2803 36.4164C8.27581 36.9063 5.21847 42.1311 4.56537 44.6823C3.73266 51.001 8.3003 51.3153 10.6882 50.6826L20.7909 48.4172Z" fill="white" stroke="white"/>
</svg>
