<svg width="817" height="639" viewBox="0 0 817 639" fill="none" xmlns="http://www.w3.org/2000/svg">
<path fill-rule="evenodd" clip-rule="evenodd" d="M140.615 416.716L47.1153 543.716C49.5153 550.516 58.1154 550.883 62.1154 550.216L166.615 410.216L263.615 387.216C312.415 458.455 315.282 575.899 310.615 625.716C315.815 639.316 335.449 639.383 344.615 637.716L351.115 549.216C367.915 640.416 457.115 640.883 499.615 629.716C665.615 589.216 816.615 332.716 816.615 188.216C816.615 72.6161 736.615 20.7161 696.615 9.21613C643.815 -12.7839 573.282 9.71613 544.615 23.7161C473.015 60.9161 452.449 114.549 451.115 136.716C451.915 187.516 468.782 197.216 477.115 195.716C441.115 92.5161 547.449 39.7162 605.115 26.2162C657.115 12.6162 706.782 31.8828 725.115 43.2161C891.915 256.416 655.615 499.383 516.615 594.216C380.215 651.416 377.449 563.049 393.115 511.716C429.115 447.316 484.115 412.216 507.115 402.716C490.315 435.116 477.449 527.883 473.115 570.216C494.715 591.816 504.782 582.883 507.115 575.716C506.715 521.316 538.949 418.049 555.115 373.216C634.315 320.816 676.115 331.049 687.115 342.716C661.115 311.516 593.949 331.716 563.615 345.716L639.115 114.716C631.915 87.1161 613.449 92.5495 605.115 98.7161L516.615 367.216C417.015 404.416 367.449 479.049 355.115 511.716L371.115 362.216C408.315 349.416 443.282 345.883 456.115 345.716C430.515 328.116 392.449 333.383 376.615 338.216L425.615 26.2162C416.015 6.61617 400.282 7.04951 393.615 9.71617L214.115 306.216C112.915 231.016 33.9487 287.883 7.11535 325.716C-18.4847 408.116 31.1153 428.049 59.1153 427.716L140.615 416.716ZM234.115 320.716L374.115 113.716L337.615 345.716L272.615 362.216L234.115 320.716ZM332.615 369.716L286.615 381.216L323.115 459.216L332.615 369.716ZM223.615 334.216L249.615 367.216L188.115 381.216L223.615 334.216ZM161.615 387.216L208.115 320.716C171.715 289.916 131.949 286.883 116.615 289.216C59.4154 293.216 34.4487 335.883 29.1154 356.716C22.3154 408.316 59.6154 410.883 79.1154 405.716L161.615 387.216Z" fill="white"/>
</svg>
